# File created by Blade
# Date/Time:  Tue Jan 27 19:23:16 2015
# Frame Rate: 120.000 fps
#------------------------------------------------------
:FULLY-SPECIFIED
:DEGREES
2053
root 3.605978 32.335115 0.038835 -4.252213 4.739516 0.986726
Spine 1.332771 10.465318 0.451808
Head 10.903122 -29.192344 -10.118670
LeftShoulder -2.690142 -9.034185 22.952168
LeftArm -6.842303 43.679858 -104.160132
LeftForeArm 1.911947 -0.000000 15.098496
LeftHand 9.969851 -0.000000 -7.069038
LeftHandThumb1 -26.253704 0.000000 33.147579
RightShoulder -4.227846 8.190733 -38.776605
RightArm 68.227441 67.998327 109.676439
RightForeArm 20.983857 -0.000000 122.910866
RightHand 27.880939 -0.000000 -19.857374
RightHandThumb1 -24.326973 -0.000000 -32.862282
LeftUpLeg 9.415423 -0.924216 -0.244652
LeftLeg 2.503498 -0.000000 -0.000000
LeftFoot -16.724303 12.055419 -23.244579
LeftToeBase 17.006362 -0.000000 -0.000000
RightUpLeg 9.955577 -11.509837 0.892853
RightLeg -0.024653 -0.000000 0.000000
RightFoot -12.821245 -14.937099 13.750607
RightToeBase 10.525718 -0.000000 -0.000000
2054
root 3.600398 32.333729 0.037472 -4.264518 4.691728 0.952849
Spine 1.310001 10.489431 0.441349
Head 10.914200 -29.168619 -10.077482
LeftShoulder -2.680060 -9.024206 22.975490
LeftArm -6.884653 43.701167 -104.246587
LeftForeArm 1.925771 -0.000000 15.083035
LeftHand 9.956637 -0.000000 -6.990472
LeftHandThumb1 -26.253704 0.000000 33.147579
RightShoulder -4.228255 8.239796 -38.750618
RightArm 68.705410 67.950091 110.343270
RightForeArm 21.721673 -0.000000 122.881612
RightHand 28.038303 -0.000000 -19.611489
RightHandThumb1 -24.326973 -0.000000 -32.862282
LeftUpLeg 9.415074 -0.867496 -0.190688
LeftLeg 2.533164 -0.000000 -0.000000
LeftFoot -16.756914 11.997723 -23.262030
LeftToeBase 16.977139 -0.000000 -0.000000
RightUpLeg 9.949085 -11.488449 0.937947
RightLeg -0.013451 -0.000000 0.000000
RightFoot -12.796122 -14.933294 13.700991
RightToeBase 10.535631 -0.000000 -0.000000
2055
root 3.591417 32.334273 0.031367 -4.239811 4.665160 0.949233
Spine 1.258782 10.492421 0.363825
Head 10.893807 -29.125734 -9.988139
LeftShoulder -2.673697 -9.042051 22.994507
LeftArm -6.944154 43.712336 -104.297300
LeftForeArm 2.047834 -0.000000 15.081089
LeftHand 9.936949 0.000000 -6.595061
LeftHandThumb1 -26.253704 0.000000 33.147579
RightShoulder -4.225491 8.327728 -38.682665
RightArm 68.961016 67.909166 110.733299
RightForeArm 22.369671 -0.000000 122.740910
RightHand 28.106057 -0.000000 -19.589138
RightHandThumb1 -24.326973 -0.000000 -32.862282
LeftUpLeg 9.397361 -1.107720 -0.225465
LeftLeg 2.506710 -0.000000 -0.000000
LeftFoot -16.849483 12.276582 -23.339327
LeftToeBase 16.994945 -0.000000 -0.000000
RightUpLeg 9.894244 -11.449530 0.974982
RightLeg 0.007833 -0.000000 -0.000000
RightFoot -12.789221 -14.976198 13.677395
RightToeBase 10.504798 -0.000000 -0.000000
2056
root 3.589547 32.334335 0.030831 -4.259296 4.606308 0.944631
Spine 1.248160 10.529852 0.335358
Head 10.892164 -29.084824 -9.967488
LeftShoulder -2.690904 -9.055816 22.997073
LeftArm -6.998581 43.806100 -104.371607
LeftForeArm 2.123258 -0.000000 15.061041
LeftHand 9.841623 -0.000000 -6.037338
LeftHandThumb1 -26.253704 0.000000 33.147579
RightShoulder -4.237422 8.347243 -38.653208
RightArm 69.138794 67.826912 110.991567
RightForeArm 22.732454 0.000000 122.474980
RightHand 28.224013 -0.000000 -19.744173
RightHandThumb1 -24.326973 -0.000000 -32.862282
LeftUpLeg 9.414495 -1.110678 -0.226100
LeftLeg 2.526978 -0.000000 -0.000000
LeftFoot -16.889775 12.323407 -23.365762
LeftToeBase 16.989356 -0.000000 -0.000000
RightUpLeg 9.902981 -11.420213 0.981297
RightLeg 0.011437 -0.000000 -0.000000
RightFoot -12.777416 -14.962363 13.654728
RightToeBase 10.529272 -0.000000 -0.000000
